[Header]
FileType HTR
DataType HTRS
FileVersion 1
NumSegments 64
NumFrames 4
DataFrameRate 30
EulerRotationOrder ZYX
CalibrationUnits mm
RotationUnits Degrees
GlobalAxisofGravity Y
BoneLengthAxis Y
ScaleFactor 1.0
[SegmentNames&Hierarchy]
Hips	GLOBAL
Spine	Hips
Spine1	Spine
Spine2	Spine1
Neck	Spine2
Head	Neck
LeftEye	Head
RightEye	Head
LeftShoulder	Spine2
LeftArm	LeftShoulder
LeftForeArm	LeftArm
LeftHand	LeftForeArm
LeftHandThumb1	LeftHand
LeftHandThumb2	LeftHandThumb1
LeftHandThumb3	LeftHandThumb2
LeftHandThumb4	LeftHandThumb3
LeftHandIndex1	LeftHand
LeftHandIndex2	LeftHandIndex1
LeftHandIndex3	LeftHandIndex2
LeftHandIndex4	LeftHandIndex3
LeftHandMiddle1	LeftHand
LeftHandMiddle2	LeftHandMiddle1
LeftHandMiddle3	LeftHandMiddle2
LeftHandMiddle4	LeftHandMiddle3
LeftHandRing1	LeftHand
LeftHandRing2	LeftHandRing1
LeftHandRing3	LeftHandRing2
LeftHandRing4	LeftHandRing3
LeftHandPinky1	LeftHand
LeftHandPinky2	LeftHandPinky1
LeftHandPinky3	LeftHandPinky2
LeftHandPinky4	LeftHandPinky3
RightShoulder	Spine2
RightArm	RightShoulder
RightForeArm	RightArm
RightHand	RightForeArm
RightHandPinky1	RightHand
RightHandPinky2	RightHandPinky1
RightHandPinky3	RightHandPinky2
RightHandPinky4	RightHandPinky3
RightHandRing1	RightHand
RightHandRing2	RightHandRing1
RightHandRing3	RightHandRing2
RightHandRing4	RightHandRing3
RightHandMiddle1	RightHand
RightHandMiddle2	RightHandMiddle1
RightHandMiddle3	RightHandMiddle2
RightHandMiddle4	RightHandMiddle3
RightHandIndex1	RightHand
RightHandIndex2	RightHandIndex1
RightHandIndex3	RightHandIndex2
RightHandIndex4	RightHandIndex3
RightHandThumb1	RightHand
RightHandThumb2	RightHandThumb1
RightHandThumb3	RightHandThumb2
RightHandThumb4	RightHandThumb3
LeftUpLeg	Hips
LeftLeg	LeftUpLeg
LeftFoot	LeftLeg
LeftToeBase	LeftFoot
RightUpLeg	Hips
RightLeg	RightUpLeg
RightFoot	RightLeg
RightToeBase	RightFoot
[BasePosition]
Hips	0	0	0	0	0	0	1
Spine	0	0	0	0	0	0	1
Spine1	0	0	0	0	0	0	1
Spine2	0	0	0	0	0	0	1
Neck	0	0	0	0	0	0	1
Head	0	0	0	0	0	0	1
LeftEye	0	0	0	0	0	0	1
RightEye	0	0	0	0	0	0	1
LeftShoulder	0	0	0	0	0	0	1
LeftArm	0	0	0	0	0	0	1
LeftForeArm	0	0	0	0	0	0	1
LeftHand	0	0	0	0	0	0	1
LeftHandThumb1	0	0	0	0	0	0	1
LeftHandThumb2	0	0	0	0	0	0	1
LeftHandThumb3	0	0	0	0	0	0	1
LeftHandThumb4	0	0	0	0	0	0	1
LeftHandIndex1	0	0	0	0	0	0	1
LeftHandIndex2	0	0	0	0	0	0	1
LeftHandIndex3	0	0	0	0	0	0	1
LeftHandIndex4	0	0	0	0	0	0	1
LeftHandMiddle1	0	0	0	0	0	0	1
LeftHandMiddle2	0	0	0	0	0	0	1
LeftHandMiddle3	0	0	0	0	0	0	1
LeftHandMiddle4	0	0	0	0	0	0	1
LeftHandRing1	0	0	0	0	0	0	1
LeftHandRing2	0	0	0	0	0	0	1
LeftHandRing3	0	0	0	0	0	0	1
LeftHandRing4	0	0	0	0	0	0	1
LeftHandPinky1	0	0	0	0	0	0	1
LeftHandPinky2	0	0	0	0	0	0	1
LeftHandPinky3	0	0	0	0	0	0	1
LeftHandPinky4	0	0	0	0	0	0	1
RightShoulder	0	0	0	0	0	0	1
RightArm	0	0	0	0	0	0	1
RightForeArm	0	0	0	0	0	0	1
RightHand	0	0	0	0	0	0	1
RightHandPinky1	0	0	0	0	0	0	1
RightHandPinky2	0	0	0	0	0	0	1
RightHandPinky3	0	0	0	0	0	0	1
RightHandPinky4	0	0	0	0	0	0	1
RightHandRing1	0	0	0	0	0	0	1
RightHandRing2	0	0	0	0	0	0	1
RightHandRing3	0	0	0	0	0	0	1
RightHandRing4	0	0	0	0	0	0	1
RightHandMiddle1	0	0	0	0	0	0	1
RightHandMiddle2	0	0	0	0	0	0	1
RightHandMiddle3	0	0	0	0	0	0	1
RightHandMiddle4	0	0	0	0	0	0	1
RightHandIndex1	0	0	0	0	0	0	1
RightHandIndex2	0	0	0	0	0	0	1
RightHandIndex3	0	0	0	0	0	0	1
RightHandIndex4	0	0	0	0	0	0	1
RightHandThumb1	0	0	0	0	0	0	1
RightHandThumb2	0	0	0	0	0	0	1
RightHandThumb3	0	0	0	0	0	0	1
RightHandThumb4	0	0	0	0	0	0	1
LeftUpLeg	0	0	0	0	0	0	1
LeftLeg	0	0	0	0	0	0	1
LeftFoot	0	0	0	0	0	0	1
LeftToeBase	0	0	0	0	0	0	1
RightUpLeg	0	0	0	0	0	0	1
RightLeg	0	0	0	0	0	0	1
RightFoot	0	0	0	0	0	0	1
RightToeBase	0	0	0	0	0	0	1
[Hips]
68 	-2.803527832	1033.995483	1.666529179	-2.656201363	-4.73149538	-2.884987354	1.0
69 	-1.970432758	1034.224854	4.103914261	-2.723235607	-5.16206646	-2.811703444	1.0
70 	-1.970432758	1034.224854	4.103914261	-2.723235607	-5.16206646	-2.811703444	1.0
71 	-1.970432758	1034.224854	4.103914261	-2.723235607	-5.16206646	-2.811703444	1.0
[Spine]
68 	0	101.8159943	1.315000057	4.131083965	1.429356575	3.034236193	1.0
69 	0	101.8159943	1.315000057	4.080457687	1.390495181	3.059668064	1.0
70 	0	101.8159943	1.315000057	4.080457687	1.390495181	3.059668064	1.0
71 	0	101.8159943	1.315000057	4.080457687	1.390495181	3.059668064	1.0
[Spine1]
68 	0	100.8349991	-10.00800037	1.503527999	0.3661031425	1.726882339	1.0
69 	0	100.8349991	-10.00800037	1.470451593	0.3127530217	1.760040045	1.0
70 	0	100.8349991	-10.00800037	1.470451593	0.3127530217	1.760040045	1.0
71 	0	100.8349991	-10.00800037	1.470451593	0.3127530217	1.760040045	1.0
[Spine2]
68 	0	91	-13.73399925	1.472567439	0.3933452368	1.74149394	1.0
69 	0	91	-13.73399925	1.439578772	0.3392785192	1.773723483	1.0
70 	0	91	-13.73399925	1.439578772	0.3392785192	1.773723483	1.0
71 	0	91	-13.73399925	1.439578772	0.3392785192	1.773723483	1.0
[Neck]
68 	0	166.7169952	-25.16200066	5.521406651	-0.0568959564	0.8369332552	1.0
69 	0	166.7169952	-25.16200066	5.617417812	0.01503878366	0.798908174	1.0
70 	0	166.7169952	-25.16200066	5.617417812	0.01503878366	0.798908174	1.0
71 	0	166.7169952	-25.16200066	5.617417812	0.01503878366	0.798908174	1.0
[Head]
68 	0	96.17900085	16.84999847	-8.62437439	0.8544635177	1.530123949	1.0
69 	0	96.17900085	16.84999847	-8.258464813	1.253086567	1.291684985	1.0
70 	0	96.17900085	16.84999847	-8.258464813	1.253086567	1.291684985	1.0
71 	0	96.17900085	16.84999847	-8.258464813	1.253086567	1.291684985	1.0
[LeftEye]
68 	30.6760006	64.09500122	92.83599854	0	0	0	1.0
69 	30.6760006	64.09500122	92.83599854	0	0	0	1.0
70 	30.6760006	64.09500122	92.83599854	0	0	0	1.0
71 	30.6760006	64.09500122	92.83599854	0	0	0	1.0
[RightEye]
68 	-30.6760006	64.09500122	92.83499908	0	0	0	1.0
69 	-30.6760006	64.09500122	92.83499908	0	0	0	1.0
70 	-30.6760006	64.09500122	92.83499908	0	0	0	1.0
71 	-30.6760006	64.09500122	92.83499908	0	0	0	1.0
[LeftShoulder]
68 	45.70400238	109.4599991	-26.28000069	5.077946663	-17.60699463	-13.08194447	1.0
69 	45.70400238	109.4599991	-26.28000069	5.117727757	-17.75356102	-13.107584	1.0
70 	45.70400238	109.4599991	-26.28000069	5.117727757	-17.75356102	-13.107584	1.0
71 	45.70400238	109.4599991	-26.28000069	5.117727757	-17.75356102	-13.107584	1.0
[LeftArm]
68 	105.923996	-5.24600029	-22.32099915	23.89559555	-5.9559021	-70.99613953	1.0
69 	105.923996	-5.24600029	-22.32099915	24.4217205	-6.091187	-71.39094543	1.0
70 	105.923996	-5.24600029	-22.32099915	24.4217205	-6.091187	-71.39094543	1.0
71 	105.923996	-5.24600029	-22.32099915	24.4217205	-6.091187	-71.39094543	1.0
[LeftForeArm]
68 	278.414978	-0.0009999999311	0	2.300386768e-06	-3.824247122	-0.0002132674126	1.0
69 	278.414978	-0.0009999999311	0	2.283678214e-06	-4.012564659	-0.0002124681923	1.0
70 	278.414978	-0.0009999999311	0	2.283678214e-06	-4.012564659	-0.0002124681923	1.0
71 	278.414978	-0.0009999999311	0	2.283678214e-06	-4.012564659	-0.0002124681923	1.0
[LeftHand]
68 	283.2879944	0	0	-36.38389587	-6.368097305	-2.844643831	1.0
69 	283.2879944	0	0	-36.36176682	-6.415017128	-3.017925501	1.0
70 	283.2879944	0	0	-36.36176682	-6.415017128	-3.017925501	1.0
71 	283.2879944	0	0	-36.36176682	-6.415017128	-3.017925501	1.0
[LeftHandThumb1]
68 	24.6609993	-15.75	26.8239994	-3.174245358	1.828831434	6.251725197	1.0
69 	24.6609993	-15.75	26.8239994	-3.330260515	1.607306719	6.220460892	1.0
70 	24.6609993	-15.75	26.8239994	-3.330260515	1.607306719	6.220460892	1.0
71 	24.6609993	-15.75	26.8239994	-3.330260515	1.607306719	6.220460892	1.0
[LeftHandThumb2]
68 	32.29800034	-18.64699936	18.64699936	19.91230774	20.33779716	22.49458504	1.0
69 	32.29800034	-18.64699936	18.64699936	19.91524124	20.39125252	22.38203239	1.0
70 	32.29800034	-18.64699936	18.64699936	19.91524124	20.39125252	22.38203239	1.0
71 	32.29800034	-18.64699936	18.64699936	19.91524124	20.39125252	22.38203239	1.0
[LeftHandThumb3]
68 	26.52600098	-15.31499958	15.31499958	-12.96037292	5.130681515	7.766475677	1.0
69 	26.52600098	-15.31499958	15.31499958	-12.9248457	5.055298328	7.713687897	1.0
70 	26.52600098	-15.31499958	15.31499958	-12.9248457	5.055298328	7.713687897	1.0
71 	26.52600098	-15.31499958	15.31499958	-12.9248457	5.055298328	7.713687897	1.0
[LeftHandThumb4]
68 	19.54599953	-11.28499985	11.28499985	0	0	0	1.0
69 	19.54599953	-11.28499985	11.28499985	0	0	0	1.0
70 	19.54599953	-11.28499985	11.28499985	0	0	0	1.0
71 	19.54599953	-11.28499985	11.28499985	0	0	0	1.0
[LeftHandIndex1]
68 	91.09299469	-5.170999527	22.60099792	0.210416615	-1.02106297	-6.857656956	1.0
69 	91.09299469	-5.170999527	22.60099792	0.1830694824	-1.128343105	-6.616247654	1.0
70 	91.09299469	-5.170999527	22.60099792	0.1830694824	-1.128343105	-6.616247654	1.0
71 	91.09299469	-5.170999527	22.60099792	0.1830694824	-1.128343105	-6.616247654	1.0
[LeftHandIndex2]
68 	36.76399994	0	0	-0.2620431781	1.730219364	-17.22279739	1.0
69 	36.76399994	0	0	-0.2620237768	1.730156183	-17.22213554	1.0
70 	36.76399994	0	0	-0.2620237768	1.730156183	-17.22213554	1.0
71 	36.76399994	0	0	-0.2620237768	1.730156183	-17.22213554	1.0
[LeftHandIndex3]
68 	28.83100128	0	0	-0.05531287938	0.8022201061	-7.888701916	1.0
69 	28.83100128	0	0	-0.05529014766	0.802067697	-7.88720417	1.0
70 	28.83100128	0	0	-0.05529014766	0.802067697	-7.88720417	1.0
71 	28.83100128	0	0	-0.05529014766	0.802067697	-7.88720417	1.0
[LeftHandIndex4]
68 	23.92700005	0	0	0	0	0	1.0
69 	23.92700005	0	0	0	0	0	1.0
70 	23.92700005	0	0	0	0	0	1.0
71 	23.92700005	0	0	0	0	0	1.0
[LeftHandMiddle1]
68 	95.33399963	0	0	-0.8362066746	1.845780849	-16.35939026	1.0
69 	95.33399963	0	0	-0.8124500513	1.751770139	-16.01717758	1.0
70 	95.33399963	0	0	-0.8124500513	1.751770139	-16.01717758	1.0
71 	95.33399963	0	0	-0.8124500513	1.751770139	-16.01717758	1.0
[LeftHandMiddle2]
68 	36.98199844	0	0	-0.2717874646	1.761325002	-17.54260254	1.0
69 	36.98199844	0	0	-0.2712678611	1.759678245	-17.52567291	1.0
70 	36.98199844	0	0	-0.2712678611	1.759678245	-17.52567291	1.0
71 	36.98199844	0	0	-0.2712678611	1.759678245	-17.52567291	1.0
[LeftHandMiddle3]
68 	29.50900078	0	0	-0.3040498197	1.86026454	-18.56364822	1.0
69 	29.50900078	0	0	-0.3035255373	1.858706474	-18.54751396	1.0
70 	29.50900078	0	0	-0.3035255373	1.858706474	-18.54751396	1.0
71 	29.50900078	0	0	-0.3035255373	1.858706474	-18.54751396	1.0
[LeftHandMiddle4]
68 	28.3390007	0	0	0	0	0	1.0
69 	28.3390007	0	0	0	0	0	1.0
70 	28.3390007	0	0	0	0	0	1.0
71 	28.3390007	0	0	0	0	0	1.0
[LeftHandRing1]
68 	91.04499817	-0.4390000105	-18.65100098	-1.190643787	3.049334526	-21.24732971	1.0
69 	91.04499817	-0.4390000105	-18.65100098	-1.16600585	2.991092205	-20.92357063	1.0
70 	91.04499817	-0.4390000105	-18.65100098	-1.16600585	2.991092205	-20.92357063	1.0
71 	91.04499817	-0.4390000105	-18.65100098	-1.16600585	2.991092205	-20.92357063	1.0
[LeftHandRing2]
68 	31.54000092	0	0	-0.4124552011	2.156096458	-21.65588951	1.0
69 	31.54000092	0	0	-0.4085008204	2.146179199	-21.55109215	1.0
70 	31.54000092	0	0	-0.4085008204	2.146179199	-21.55109215	1.0
71 	31.54000092	0	0	-0.4085008204	2.146179199	-21.55109215	1.0
[LeftHandRing3]
68 	29.37700081	0	0	-0.306240052	1.866702318	-18.63035202	1.0
69 	29.37700081	0	0	-0.3028799593	1.856777072	-18.52754021	1.0
70 	29.37700081	0	0	-0.3028799593	1.856777072	-18.52754021	1.0
71 	29.37700081	0	0	-0.3028799593	1.856777072	-18.52754021	1.0
[LeftHandRing4]
68 	26.47500038	0	0	0	0	0	1.0
69 	26.47500038	0	0	0	0	0	1.0
70 	26.47500038	0	0	0	0	0	1.0
71 	26.47500038	0	0	0	0	0	1.0
[LeftHandPinky1]
68 	80.77799988	-4.887000084	-38.06099701	-1.732898712	4.995162487	-26.61464882	1.0
69 	80.77799988	-4.887000084	-38.06099701	-1.727750182	4.944420338	-26.4487114	1.0
70 	80.77799988	-4.887000084	-38.06099701	-1.727750182	4.944420338	-26.4487114	1.0
71 	80.77799988	-4.887000084	-38.06099701	-1.727750182	4.944420338	-26.4487114	1.0
[LeftHandPinky2]
68 	36	0	0	-0.269734621	1.754829407	-17.47579002	1.0
69 	36	0	0	-0.2694313228	1.7538656	-17.46588326	1.0
70 	36	0	0	-0.2694313228	1.7538656	-17.46588326	1.0
71 	36	0	0	-0.2694313228	1.7538656	-17.46588326	1.0
[LeftHandPinky3]
68 	21.14200211	0	0	-0.2428617179	1.667108774	-16.57575607	1.0
69 	21.14200211	0	0	-0.2425733358	1.666142344	-16.56586456	1.0
70 	21.14200211	0	0	-0.2425733358	1.666142344	-16.56586456	1.0
71 	21.14200211	0	0	-0.2425733358	1.666142344	-16.56586456	1.0
[LeftHandPinky4]
68 	19.75699997	0	0	0	0	0	1.0
69 	19.75699997	0	0	0	0	0	1.0
70 	19.75699997	0	0	0	0	0	1.0
71 	19.75699997	0	0	0	0	0	1.0
[RightShoulder]
68 	-45.70000076	109.4620056	-26.28000069	5.179818153	14.42451477	15.75726223	1.0
69 	-45.70000076	109.4620056	-26.28000069	5.16490078	14.38088799	15.71820927	1.0
70 	-45.70000076	109.4620056	-26.28000069	5.16490078	14.38088799	15.71820927	1.0
71 	-45.70000076	109.4620056	-26.28000069	5.16490078	14.38088799	15.71820927	1.0
[RightArm]
68 	-105.9280014	-5.248000145	-22.32099915	30.41213036	2.283878088	61.55982971	1.0
69 	-105.9280014	-5.248000145	-22.32099915	30.04492569	2.281253338	61.59500504	1.0
70 	-105.9280014	-5.248000145	-22.32099915	30.04492569	2.281253338	61.59500504	1.0
71 	-105.9280014	-5.248000145	-22.32099915	30.04492569	2.281253338	61.59500504	1.0
[RightForeArm]
68 	-278.414978	0	0	4.264580639e-06	6.667165756	1.150304797e-06	1.0
69 	-278.414978	0	0	4.893661298e-06	6.56602335	1.826874268e-06	1.0
70 	-278.414978	0	0	4.893661298e-06	6.56602335	1.826874268e-06	1.0
71 	-278.414978	0	0	4.893661298e-06	6.56602335	1.826874268e-06	1.0
[RightHand]
68 	-283.2879944	0	0.0009999999311	-19.60042572	1.596031666	7.328433514	1.0
69 	-283.2879944	0	0.0009999999311	-19.81973839	1.600698352	7.455910683	1.0
70 	-283.2879944	0	0.0009999999311	-19.81973839	1.600698352	7.455910683	1.0
71 	-283.2879944	0	0.0009999999311	-19.81973839	1.600698352	7.455910683	1.0
[RightHandPinky1]
68 	-80.76699829	-4.885000229	-38.06000137	-1.542877555	-4.725658417	27.10202408	1.0
69 	-80.76699829	-4.885000229	-38.06000137	-1.538318157	-4.729144096	27.05099869	1.0
70 	-80.76699829	-4.885000229	-38.06000137	-1.538318157	-4.729144096	27.05099869	1.0
71 	-80.76699829	-4.885000229	-38.06000137	-1.538318157	-4.729144096	27.05099869	1.0
[RightHandPinky2]
68 	-36	0	0.0009999999311	-0.2173451483	-1.403392792	17.6259861	1.0
69 	-36	0	0.0009999999311	-0.2169570476	-1.402160764	17.61003494	1.0
70 	-36	0	0.0009999999311	-0.2169570476	-1.402160764	17.61003494	1.0
71 	-36	0	0.0009999999311	-0.2169570476	-1.402160764	17.61003494	1.0
[RightHandPinky3]
68 	-21.14200211	0	0	-0.1962723434	-1.335188866	16.72446823	1.0
69 	-21.14200211	0	0	-0.1959012896	-1.333952546	16.70853996	1.0
70 	-21.14200211	0	0	-0.1959012896	-1.333952546	16.70853996	1.0
71 	-21.14200211	0	0	-0.1959012896	-1.333952546	16.70853996	1.0
[RightHandPinky4]
68 	-19.75699997	0	0	0	0	0	1.0
69 	-19.75699997	0	0	0	0	0	1.0
70 	-19.75699997	0	0	0	0	0	1.0
71 	-19.75699997	0	0	0	0	0	1.0
[RightHandRing1]
68 	-91.03599548	-0.4390000105	-18.65100098	-1.058905959	-2.912912846	20.68482971	1.0
69 	-91.03599548	-0.4390000105	-18.65100098	-1.062332273	-2.909181833	20.7367878	1.0
70 	-91.03599548	-0.4390000105	-18.65100098	-1.062332273	-2.909181833	20.7367878	1.0
71 	-91.03599548	-0.4390000105	-18.65100098	-1.062332273	-2.909181833	20.7367878	1.0
[RightHandRing2]
68 	-31.54000092	0	0	-0.3063794672	-1.657928467	20.93835831	1.0
69 	-31.54000092	0	0	-0.307192117	-1.660052657	20.96646309	1.0
70 	-31.54000092	0	0	-0.307192117	-1.660052657	20.96646309	1.0
71 	-31.54000092	0	0	-0.307192117	-1.660052657	20.96646309	1.0
[RightHandRing3]
68 	-29.37700081	0	0	-0.2242616713	-1.424994707	17.88646317	1.0
69 	-29.37700081	0	0	-0.2249610573	-1.427166343	17.9146328	1.0
70 	-29.37700081	0	0	-0.2249610573	-1.427166343	17.9146328	1.0
71 	-29.37700081	0	0	-0.2249610573	-1.427166343	17.9146328	1.0
[RightHandRing4]
68 	-26.47500038	0	0	0	0	0	1.0
69 	-26.47500038	0	0	0	0	0	1.0
70 	-26.47500038	0	0	0	0	0	1.0
71 	-26.47500038	0	0	0	0	0	1.0
[RightHandMiddle1]
68 	-95.32500458	0	0	-0.7120048404	-2.151862621	15.18621159	1.0
69 	-95.32500458	0	0	-0.7118834853	-2.157497883	15.18391609	1.0
70 	-95.32500458	0	0	-0.7118834853	-2.157497883	15.18391609	1.0
71 	-95.32500458	0	0	-0.7118834853	-2.157497883	15.18391609	1.0
[RightHandMiddle2]
68 	-36.98199844	0	0	-0.2094594538	-1.3782897	17.28127289	1.0
69 	-36.98199844	0	0	-0.2099747658	-1.37994194	17.30272293	1.0
70 	-36.98199844	0	0	-0.2099747658	-1.37994194	17.30272293	1.0
71 	-36.98199844	0	0	-0.2099747658	-1.37994194	17.30272293	1.0
[RightHandMiddle3]
68 	-29.50900078	0	0	-0.2344131768	-1.458085418	18.29033089	1.0
69 	-29.50900078	0	0	-0.2349575311	-1.459733725	18.31173325	1.0
70 	-29.50900078	0	0	-0.2349575311	-1.459733725	18.31173325	1.0
71 	-29.50900078	0	0	-0.2349575311	-1.459733725	18.31173325	1.0
[RightHandMiddle4]
68 	-28.3390007	0	0.0009999999311	0	0	0	1.0
69 	-28.3390007	0	0.0009999999311	0	0	0	1.0
70 	-28.3390007	0	0.0009999999311	0	0	0	1.0
71 	-28.3390007	0	0.0009999999311	0	0	0	1.0
[RightHandIndex1]
68 	-91.08300018	-5.167999744	22.60099792	0.1962483972	1.303013563	6.644330978	1.0
69 	-91.08300018	-5.167999744	22.60099792	0.1983782351	1.282406211	6.662461281	1.0
70 	-91.08300018	-5.167999744	22.60099792	0.1983782351	1.282406211	6.662461281	1.0
71 	-91.08300018	-5.167999744	22.60099792	0.1983782351	1.282406211	6.662461281	1.0
[RightHandIndex2]
68 	-36.76399994	0	0	-0.2077993602	-1.37296474	17.2123661	1.0
69 	-36.76399994	0	0	-0.2082604766	-1.374459863	17.2317028	1.0
70 	-36.76399994	0	0	-0.2082604766	-1.374459863	17.2317028	1.0
71 	-36.76399994	0	0	-0.2082604766	-1.374459863	17.2317028	1.0
[RightHandIndex3]
68 	-28.83100128	0	0	-0.04357887805	-0.6344604492	7.85832119	1.0
69 	-28.83100128	0	0	-0.04379437864	-0.6360090971	7.877624989	1.0
70 	-28.83100128	0	0	-0.04379437864	-0.6360090971	7.877624989	1.0
71 	-28.83100128	0	0	-0.04379437864	-0.6360090971	7.877624989	1.0
[RightHandIndex4]
68 	-23.92700005	0	0	0	0	0	1.0
69 	-23.92700005	0	0	0	0	0	1.0
70 	-23.92700005	0	0	0	0	0	1.0
71 	-23.92700005	0	0	0	0	0	1.0
[RightHandThumb1]
68 	-24.64799881	-15.72700024	26.82600021	-1.696157455	-0.0893176049	-4.091117859	1.0
69 	-24.64799881	-15.72700024	26.82600021	-1.714524627	-0.1517617553	-4.130402565	1.0
70 	-24.64799881	-15.72700024	26.82600021	-1.714524627	-0.1517617553	-4.130402565	1.0
71 	-24.64799881	-15.72700024	26.82600021	-1.714524627	-0.1517617553	-4.130402565	1.0
[RightHandThumb2]
68 	-32.29800034	-18.64699936	18.64699936	22.25408554	-23.90575981	-24.31384659	1.0
69 	-32.29800034	-18.64699936	18.64699936	22.25641823	-23.90737534	-24.32562637	1.0
70 	-32.29800034	-18.64699936	18.64699936	22.25641823	-23.90737534	-24.32562637	1.0
71 	-32.29800034	-18.64699936	18.64699936	22.25641823	-23.90737534	-24.32562637	1.0
[RightHandThumb3]
68 	-26.52600098	-15.31399918	15.31399918	-14.44551277	-6.701377392	-11.2749548	1.0
69 	-26.52600098	-15.31399918	15.31399918	-14.45307541	-6.713391781	-11.29045677	1.0
70 	-26.52600098	-15.31399918	15.31399918	-14.45307541	-6.713391781	-11.29045677	1.0
71 	-26.52600098	-15.31399918	15.31399918	-14.45307541	-6.713391781	-11.29045677	1.0
[RightHandThumb4]
68 	-19.54599953	-11.28499985	11.28499985	0	0	0	1.0
69 	-19.54599953	-11.28499985	11.28499985	0	0	0	1.0
70 	-19.54599953	-11.28499985	11.28499985	0	0	0	1.0
71 	-19.54599953	-11.28499985	11.28499985	0	0	0	1.0
[LeftUpLeg]
68 	82.07800293	-67.51699829	-15.99599934	-9.318020821	16.06285667	7.071799755	1.0
69 	82.07800293	-67.51699829	-15.99599934	-9.148022652	16.04864693	7.065451145	1.0
70 	82.07800293	-67.51699829	-15.99599934	-9.148022652	16.04864693	7.065451145	1.0
71 	82.07800293	-67.51699829	-15.99599934	-9.148022652	16.04864693	7.065451145	1.0
[LeftLeg]
68 	0	-443.7049866	2.845999956	10.55402184	0.9520024061	4.200300694	1.0
69 	0	-443.7049866	2.845999956	10.87868786	1.331236362	4.272135258	1.0
70 	0	-443.7049866	2.845999956	10.87868786	1.331236362	4.272135258	1.0
71 	0	-443.7049866	2.845999956	10.87868786	1.331236362	4.272135258	1.0
[LeftFoot]
68 	0	-444.2789917	-29.8219986	2.747582436	0.847486794	-7.347746849	1.0
69 	0	-444.2789917	-29.8219986	2.585217953	0.8370745182	-7.35711956	1.0
70 	0	-444.2789917	-29.8219986	2.585217953	0.8370745182	-7.35711956	1.0
71 	0	-444.2789917	-29.8219986	2.585217953	0.8370745182	-7.35711956	1.0
[LeftToeBase]
68 	0	-87.28699493	107.1060028	-4.713630676	1.832994371e-06	-2.505153134e-06	1.0
69 	0	-87.28699493	107.1060028	-4.700619698	1.282606799e-09	-2.910918738e-06	1.0
70 	0	-87.28699493	107.1060028	-4.700619698	1.282606799e-09	-2.910918738e-06	1.0
71 	0	-87.28699493	107.1060028	-4.700619698	1.282606799e-09	-2.910918738e-06	1.0
[RightUpLeg]
68 	-82.07800293	-67.51699829	-15.99599934	-2.26326561	-10.3584137	3.971789837	1.0
69 	-82.07800293	-67.51699829	-15.99599934	-1.966077447	-10.414608	3.684630632	1.0
70 	-82.07800293	-67.51699829	-15.99599934	-1.966077447	-10.414608	3.684630632	1.0
71 	-82.07800293	-67.51699829	-15.99599934	-1.966077447	-10.414608	3.684630632	1.0
[RightLeg]
68 	0	-443.7049866	2.861999989	8.952898026	-9.343065262	-5.539003372	1.0
69 	0	-443.7049866	2.861999989	8.850408554	-9.355495453	-5.36063385	1.0
70 	0	-443.7049866	2.861999989	8.850408554	-9.355495453	-5.36063385	1.0
71 	0	-443.7049866	2.861999989	8.850408554	-9.355495453	-5.36063385	1.0
[RightFoot]
68 	0	-444.2770081	-29.83799934	-3.449265718	-1.934959054	3.196410656	1.0
69 	0	-444.2770081	-29.83799934	-3.528866291	-1.461788058	3.214257956	1.0
70 	0	-444.2770081	-29.83799934	-3.528866291	-1.461788058	3.214257956	1.0
71 	0	-444.2770081	-29.83799934	-3.528866291	-1.461788058	3.214257956	1.0
[RightToeBase]
68 	0	-87.28699493	107.1060028	-7.346702576	1.22712845e-06	-3.310872216e-07	1.0
69 	0	-87.28699493	107.1060028	-7.307800293	7.602683581e-06	-8.382344276e-07	1.0
70 	0	-87.28699493	107.1060028	-7.307800293	7.602683581e-06	-8.382344276e-07	1.0
71 	0	-87.28699493	107.1060028	-7.307800293	7.602683581e-06	-8.382344276e-07	1.0
[EndOfFile]
